<svg xmlns="http://www.w3.org/2000/svg" width="100" height="100"><path fill="#fecd29" d="m27.056 16.88 2.74.006h3.093l3.365.016 3.426.005c3.627.005 7.255.018 10.883.03q3.678.009 7.357.014 9.04.017 18.08.049l.867 1.879c1.063 2.274 1.063 2.274 3.258 4.059C82 25 82 25 82.25 27.75L82 30l4 2q.112 10.17.165 20.343.022 3.462.061 6.923c.037 3.314.054 6.627.067 9.941.015 1.034.03 2.069.047 3.135v2.911l.02 2.564C86 80 86 80 84.877 81.772c-2.757 1.805-4.95 1.61-8.228 1.616l-3.974.029-4.299-.019q-2.203.003-4.405.01-4.615.005-9.23-.017c-3.944-.017-7.888-.007-11.833.01-3.032.012-6.063.008-9.095 0q-2.183-.004-4.364.008c-2.032.008-4.064-.006-6.096-.02l-3.506-.008C17 83 17 83 15.124 81.772c-1.465-2.31-1.486-3.789-1.465-6.519l.001-2.911.047-3.135.013-3.216c.017-3.393.054-6.785.093-10.178q.022-3.45.04-6.897Q13.906 40.458 14 32l1.973-.793L18 30l.438-3.312C19.123 22.193 20.604 20.887 24 18c1-1 1-1 3.056-1.12"/><path fill="#ffa602" d="m27.056 16.88 2.74.006h3.093l3.365.016 3.426.005c3.627.005 7.255.018 10.883.03q3.678.009 7.357.014 9.04.017 18.08.049l.867 1.879c1.063 2.274 1.063 2.274 3.258 4.059C82 25 82 25 82 30H18c1.122-7.854 1.122-7.854 6-12 1-1 1-1 3.056-1.12"/><path d="M82 94c-.723 1.923-.723 1.923-2 4-8.099 3.432-18.801 2.304-27.46 2.26-2.535-.01-5.068 0-7.602.013-19.52.022-19.52.022-24.938-2.273-1.277-2.077-1.277-2.077-2-4 13.49-7.947 50.51-7.947 64 0"/><path fill="#fd3f4e" d="M51 39c5.325.39 9.4 2.49 14 5v8c-1.625.688-1.625.688-4 1a134 134 0 0 1-6-3l.105 3.543q.043 2.322.083 4.645l.076 2.33c.06 4.667-.223 7.69-3.264 11.482-3.218 1.609-6.52 1.598-10 1-3.239-2.672-3.89-4.38-4.625-8.5C38 61 38 61 40.688 58.125 43.772 56.146 45.492 55.562 49 55l.184-3.246.254-4.191.119-2.143c.33-5.307.33-5.307 1.443-6.42"/><path fill="#d9af22" d="M82 49h4q.111 6.54.165 13.08.022 2.224.061 4.45c.037 2.131.054 4.263.067 6.396l.048 3.888C86 80 86 80 84.76 81.924c-2.228 1.362-3.607 1.421-6.21 1.369l-2.568-.03c-.88-.024-1.762-.05-2.67-.076l-2.705-.04A550 550 0 0 1 64 83c.813-4.773.813-4.773 2.5-6.812 2.723-1.294 4.184-1.313 7.156-1.262l2.463.032L78 75l-.048-1.757a867 867 0 0 1-.14-7.93l-.076-2.764C77.682 57.528 77.703 54.078 81 50z"/><path fill="#ffdc68" d="M18.063 29.773c.827.01 1.655.02 2.507.032l2.715.02 2.84.05 2.863.027q3.507.036 7.012.098c-1.074 2.915-1.778 4.778-4 7-2.383.414-2.383.414-5.125.625l-2.758.227L22 38l.176 3.105q.07 2.042.137 4.082l.126 2.042c.097 3.96-.307 5.602-2.771 8.76C17 58 17 58 14 58a2095 2095 0 0 1-.125-12.875l-.05-3.707-.02-3.535-.032-3.27c.281-3.236.948-4.472 4.29-4.84"/><path fill="#be6400" d="m27.056 16.88 2.74.006h3.093l3.365.016 3.426.005c3.627.005 7.255.018 10.883.03q3.678.009 7.357.014 9.04.017 18.08.049l1 5H23c1.239-4.955 1.239-4.955 4.056-5.12"/><path fill="#fffcf2" d="M18 33h9l1 4-1 1h-5v11l-4 1c-1-1-1-1-1.133-4.09l.008-3.847-.008-3.84C17 35 17 35 18 33"/></svg>