<?xml version="1.0" standalone="no"?>
<!DOCTYPE svg PUBLIC "-//W3C//DTD SVG 20010904//EN"
 "http://www.w3.org/TR/2001/REC-SVG-20010904/DTD/svg10.dtd">
<svg version="1.0" xmlns="http://www.w3.org/2000/svg"
 width="48.000000pt" height="48.000000pt" viewBox="0 0 48.000000 48.000000"
 preserveAspectRatio="xMidYMid meet">

<g transform="translate(0.000000,48.000000) scale(0.100000,-0.100000)"
fill="#000000" stroke="none">
<path d="M174 445 c-3 -14 -3 -49 0 -78 6 -48 4 -56 -28 -107 -45 -70 -47
-104 -6 -125 16 -8 47 -15 68 -15 27 0 42 -5 46 -16 8 -21 8 -49 -1 -41 -10
11 -32 -13 -26 -29 7 -19 42 -18 50 3 3 9 2 33 -4 53 -9 35 -8 39 19 54 55 33
45 100 -16 112 -19 3 -39 3 -44 0 -5 -3 -14 12 -21 33 -9 31 -8 45 4 74 18 44
19 79 3 95 -19 19 -37 14 -44 -13z m35 -27 c0 -18 -4 -42 -8 -53 -7 -16 -9
-14 -15 16 -7 38 0 69 15 69 5 0 9 -15 8 -32z m-9 -149 c0 -12 -11 -30 -26
-41 -31 -25 -25 -35 9 -13 28 18 31 16 45 -37 l10 -38 -42 0 c-30 0 -48 6 -61
19 -16 19 -16 22 15 75 33 59 50 70 50 35z m94 -35 c23 -9 21 -61 -3 -74 -11
-5 -24 -10 -30 -10 -9 0 -31 59 -31 83 0 9 42 9 64 1z m-34 -194 c0 -5 -4 -10
-10 -10 -5 0 -10 5 -10 10 0 6 5 10 10 10 6 0 10 -4 10 -10z"/>
<path d="M320 371 c0 -30 -4 -40 -20 -44 -23 -6 -27 -35 -5 -43 25 -10 45 14
38 47 -5 26 -3 29 21 29 21 0 26 -5 26 -24 0 -13 -7 -26 -15 -30 -19 -7 -20
-46 -1 -46 8 0 18 5 22 12 13 20 13 119 0 123 -62 19 -66 17 -66 -24z m55 9
c3 -5 -3 -10 -14 -10 -11 0 -23 5 -26 10 -3 6 3 10 14 10 11 0 23 -4 26 -10z
m-55 -70 c0 -5 -7 -10 -16 -10 -8 0 -12 5 -9 10 3 6 10 10 16 10 5 0 9 -4 9
-10z m60 -20 c0 -5 -5 -10 -11 -10 -5 0 -7 5 -4 10 3 6 8 10 11 10 2 0 4 -4 4
-10z"/>
<path d="M60 357 c0 -3 6 -20 14 -38 10 -23 11 -39 5 -52 -7 -13 -6 -19 6 -23
24 -10 42 12 29 34 -8 12 -8 22 0 34 7 11 7 21 1 27 -11 10 -55 25 -55 18z
m50 -31 c0 -3 -4 -8 -10 -11 -5 -3 -10 -1 -10 4 0 6 5 11 10 11 6 0 10 -2 10
-4z"/>
</g>
</svg>
